<svg width="200" height="200" viewBox="0 0 200 200" fill="none" xmlns="http://www.w3.org/2000/svg">
<mask id="mask0_379_50710" style="mask-type:luminance" maskUnits="userSpaceOnUse" x="0" y="0" width="200" height="200">
<path d="M200 0H0V200H200V0Z" fill="white"/>
</mask>
<g mask="url(#mask0_379_50710)">
<path d="M200 0H0V200H200V0Z" fill="#E1E1E1"/>
<mask id="mask1_379_50710" style="mask-type:luminance" maskUnits="userSpaceOnUse" x="-1" y="0" width="401" height="400">
<path d="M399.999 0H-0.000976562V400H399.999V0Z" fill="white"/>
</mask>
<g mask="url(#mask1_379_50710)">
<path d="M191.666 0H183.333V133.333H191.666V0Z" fill="#E1E1E1"/>
</g>
<mask id="mask2_379_50710" style="mask-type:luminance" maskUnits="userSpaceOnUse" x="-1" y="0" width="401" height="400">
<path d="M399.999 0H-0.000976562V400H399.999V0Z" fill="white"/>
</mask>
<g mask="url(#mask2_379_50710)">
<path d="M175 0H166.667V133.333H175V0Z" fill="#E1E1E1"/>
</g>
<mask id="mask3_379_50710" style="mask-type:luminance" maskUnits="userSpaceOnUse" x="-1" y="0" width="401" height="400">
<path d="M399.999 0H-0.000976562V400H399.999V0Z" fill="white"/>
</mask>
<g mask="url(#mask3_379_50710)">
<path d="M158.333 0H150V133.333H158.333V0Z" fill="#E1E1E1"/>
</g>
<mask id="mask4_379_50710" style="mask-type:luminance" maskUnits="userSpaceOnUse" x="-1" y="0" width="401" height="400">
<path d="M399.999 0H-0.000976562V400H399.999V0Z" fill="white"/>
</mask>
<g mask="url(#mask4_379_50710)">
<path d="M141.665 0H133.332V133.333H141.665V0Z" fill="#E1E1E1"/>
</g>
<mask id="mask5_379_50710" style="mask-type:luminance" maskUnits="userSpaceOnUse" x="-1" y="0" width="401" height="400">
<path d="M399.999 0H-0.000976562V400H399.999V0Z" fill="white"/>
</mask>
<g mask="url(#mask5_379_50710)">
<path d="M125 0H116.667V133.333H125V0Z" fill="#E1E1E1"/>
</g>
<mask id="mask6_379_50710" style="mask-type:luminance" maskUnits="userSpaceOnUse" x="-1" y="0" width="401" height="400">
<path d="M399.999 0H-0.000976562V400H399.999V0Z" fill="white"/>
</mask>
<g mask="url(#mask6_379_50710)">
<path d="M108.333 0H100V133.333H108.333V0Z" fill="#E1E1E1"/>
</g>
<mask id="mask7_379_50710" style="mask-type:luminance" maskUnits="userSpaceOnUse" x="-1" y="0" width="401" height="400">
<path d="M399.999 0H-0.000976562V400H399.999V0Z" fill="white"/>
</mask>
<g mask="url(#mask7_379_50710)">
<path d="M91.6668 0H83.3335V133.333H91.6668V0Z" fill="#E1E1E1"/>
</g>
<mask id="mask8_379_50710" style="mask-type:luminance" maskUnits="userSpaceOnUse" x="-1" y="0" width="401" height="400">
<path d="M399.999 0H-0.000976562V400H399.999V0Z" fill="white"/>
</mask>
<g mask="url(#mask8_379_50710)">
<path d="M74.9993 0H66.666V133.333H74.9993V0Z" fill="#E1E1E1"/>
</g>
<mask id="mask9_379_50710" style="mask-type:luminance" maskUnits="userSpaceOnUse" x="-1" y="0" width="401" height="400">
<path d="M399.999 0H-0.000976562V400H399.999V0Z" fill="white"/>
</mask>
<g mask="url(#mask9_379_50710)">
<path d="M58.3333 0H50V133.333H58.3333V0Z" fill="#E1E1E1"/>
</g>
<mask id="mask10_379_50710" style="mask-type:luminance" maskUnits="userSpaceOnUse" x="-1" y="0" width="401" height="400">
<path d="M399.999 0H-0.000976562V400H399.999V0Z" fill="white"/>
</mask>
<g mask="url(#mask10_379_50710)">
<path d="M41.6663 0H33.333V133.333H41.6663V0Z" fill="#E1E1E1"/>
</g>
<mask id="mask11_379_50710" style="mask-type:luminance" maskUnits="userSpaceOnUse" x="-1" y="0" width="401" height="400">
<path d="M399.999 0H-0.000976562V400H399.999V0Z" fill="white"/>
</mask>
<g mask="url(#mask11_379_50710)">
<path d="M24.9993 0H16.666V133.333H24.9993V0Z" fill="#E1E1E1"/>
</g>
<mask id="mask12_379_50710" style="mask-type:luminance" maskUnits="userSpaceOnUse" x="-1" y="0" width="401" height="400">
<path d="M399.999 0H-0.000976562V400H399.999V0Z" fill="white"/>
</mask>
<g mask="url(#mask12_379_50710)">
<path d="M8.33273 0H0.059082V133.333H8.33273V0Z" fill="#E1E1E1"/>
</g>
<mask id="mask13_379_50710" style="mask-type:luminance" maskUnits="userSpaceOnUse" x="-1" y="0" width="401" height="400">
<path d="M399.999 0H-0.000976562V400H399.999V0Z" fill="white"/>
</mask>
<g mask="url(#mask13_379_50710)">
<path d="M33.3327 133.332H16.666V266.665H33.3327V133.332Z" fill="#E1E1E1"/>
</g>
<mask id="mask14_379_50710" style="mask-type:luminance" maskUnits="userSpaceOnUse" x="-1" y="0" width="401" height="400">
<path d="M399.999 0H-0.000976562V400H399.999V0Z" fill="white"/>
</mask>
<g mask="url(#mask14_379_50710)">
<path d="M66.6667 133.332H50V266.665H66.6667V133.332Z" fill="#E1E1E1"/>
</g>
<mask id="mask15_379_50710" style="mask-type:luminance" maskUnits="userSpaceOnUse" x="-1" y="0" width="401" height="400">
<path d="M399.999 0H-0.000976562V400H399.999V0Z" fill="white"/>
</mask>
<g mask="url(#mask15_379_50710)">
<path d="M100 133.332H83.3335V266.665H100V133.332Z" fill="#E1E1E1"/>
</g>
<mask id="mask16_379_50710" style="mask-type:luminance" maskUnits="userSpaceOnUse" x="-1" y="0" width="401" height="400">
<path d="M399.999 0H-0.000976562V400H399.999V0Z" fill="white"/>
</mask>
<g mask="url(#mask16_379_50710)">
<path d="M133.333 133.332H116.667V266.665H133.333V133.332Z" fill="#E1E1E1"/>
</g>
<mask id="mask17_379_50710" style="mask-type:luminance" maskUnits="userSpaceOnUse" x="-1" y="0" width="401" height="400">
<path d="M399.999 0H-0.000976562V400H399.999V0Z" fill="white"/>
</mask>
<g mask="url(#mask17_379_50710)">
<path d="M166.667 133.332H150V266.665H166.667V133.332Z" fill="#E1E1E1"/>
</g>
<mask id="mask18_379_50710" style="mask-type:luminance" maskUnits="userSpaceOnUse" x="-1" y="0" width="401" height="400">
<path d="M399.999 0H-0.000976562V400H399.999V0Z" fill="white"/>
</mask>
<g mask="url(#mask18_379_50710)">
<path d="M199.999 133.332H183.333V266.665H199.999V133.332Z" fill="#E1E1E1"/>
</g>
</g>
</svg>
