<svg width="192" height="192" viewBox="0 0 192 192" fill="none" xmlns="http://www.w3.org/2000/svg">
<mask id="mask0_379_54178" style="mask-type:luminance" maskUnits="userSpaceOnUse" x="0" y="0" width="192" height="192">
<path d="M191.339 0H0V191.339H191.339V0Z" fill="white"/>
</mask>
<g mask="url(#mask0_379_54178)">
<path d="M191.339 0H0V191.339H191.339V0Z" fill="#1E1E1E"/>
<mask id="mask1_379_54178" style="mask-type:luminance" maskUnits="userSpaceOnUse" x="0" y="0" width="383" height="383">
<path d="M382.677 0H0V382.677H382.677V0Z" fill="white"/>
</mask>
<g mask="url(#mask1_379_54178)">
<path d="M199.31 0H191.338V191.339H199.31V0Z" fill="#1E1E1E"/>
</g>
<mask id="mask2_379_54178" style="mask-type:luminance" maskUnits="userSpaceOnUse" x="0" y="0" width="383" height="383">
<path d="M382.677 0H0V382.677H382.677V0Z" fill="white"/>
</mask>
<g mask="url(#mask2_379_54178)">
<path d="M183.366 0H175.393V191.339H183.366V0Z" fill="#1E1E1E"/>
</g>
<mask id="mask3_379_54178" style="mask-type:luminance" maskUnits="userSpaceOnUse" x="0" y="0" width="383" height="383">
<path d="M382.677 0H0V382.677H382.677V0Z" fill="white"/>
</mask>
<g mask="url(#mask3_379_54178)">
<path d="M167.422 0H159.449V191.339H167.422V0Z" fill="#1E1E1E"/>
</g>
<mask id="mask4_379_54178" style="mask-type:luminance" maskUnits="userSpaceOnUse" x="0" y="0" width="383" height="383">
<path d="M382.677 0H0V382.677H382.677V0Z" fill="white"/>
</mask>
<g mask="url(#mask4_379_54178)">
<path d="M151.477 0H143.505V191.339H151.477V0Z" fill="#1E1E1E"/>
</g>
<mask id="mask5_379_54178" style="mask-type:luminance" maskUnits="userSpaceOnUse" x="0" y="0" width="383" height="383">
<path d="M382.677 0H0V382.677H382.677V0Z" fill="white"/>
</mask>
<g mask="url(#mask5_379_54178)">
<path d="M135.531 0H127.559V191.339H135.531V0Z" fill="#1E1E1E"/>
</g>
<mask id="mask6_379_54178" style="mask-type:luminance" maskUnits="userSpaceOnUse" x="0" y="0" width="383" height="383">
<path d="M382.677 0H0V382.677H382.677V0Z" fill="white"/>
</mask>
<g mask="url(#mask6_379_54178)">
<path d="M119.587 0H111.614V191.339H119.587V0Z" fill="#1E1E1E"/>
</g>
<mask id="mask7_379_54178" style="mask-type:luminance" maskUnits="userSpaceOnUse" x="0" y="0" width="383" height="383">
<path d="M382.677 0H0V382.677H382.677V0Z" fill="white"/>
</mask>
<g mask="url(#mask7_379_54178)">
<path d="M103.642 0H95.6694V191.339H103.642V0Z" fill="#1E1E1E"/>
</g>
<mask id="mask8_379_54178" style="mask-type:luminance" maskUnits="userSpaceOnUse" x="0" y="0" width="383" height="383">
<path d="M382.677 0H0V382.677H382.677V0Z" fill="white"/>
</mask>
<g mask="url(#mask8_379_54178)">
<path d="M87.6961 0H79.7236V191.339H87.6961V0Z" fill="#1E1E1E"/>
</g>
<mask id="mask9_379_54178" style="mask-type:luminance" maskUnits="userSpaceOnUse" x="0" y="0" width="383" height="383">
<path d="M382.677 0H0V382.677H382.677V0Z" fill="white"/>
</mask>
<g mask="url(#mask9_379_54178)">
<path d="M71.7517 0H63.7793V191.339H71.7517V0Z" fill="#1E1E1E"/>
</g>
<mask id="mask10_379_54178" style="mask-type:luminance" maskUnits="userSpaceOnUse" x="0" y="0" width="383" height="383">
<path d="M382.677 0H0V382.677H382.677V0Z" fill="white"/>
</mask>
<g mask="url(#mask10_379_54178)">
<path d="M55.8074 0H47.835V191.339H55.8074V0Z" fill="#1E1E1E"/>
</g>
<mask id="mask11_379_54178" style="mask-type:luminance" maskUnits="userSpaceOnUse" x="0" y="0" width="383" height="383">
<path d="M382.677 0H0V382.677H382.677V0Z" fill="white"/>
</mask>
<g mask="url(#mask11_379_54178)">
<path d="M39.8626 0H31.8901V191.339H39.8626V0Z" fill="#1E1E1E"/>
</g>
<mask id="mask12_379_54178" style="mask-type:luminance" maskUnits="userSpaceOnUse" x="0" y="0" width="383" height="383">
<path d="M382.677 0H0V382.677H382.677V0Z" fill="white"/>
</mask>
<g mask="url(#mask12_379_54178)">
<path d="M23.9168 0H15.9443V191.339H23.9168V0Z" fill="#1E1E1E"/>
</g>
<mask id="mask13_379_54178" style="mask-type:luminance" maskUnits="userSpaceOnUse" x="0" y="0" width="383" height="383">
<path d="M382.677 0H0V382.677H382.677V0Z" fill="white"/>
</mask>
<g mask="url(#mask13_379_54178)">
<path d="M7.97244 0H0V191.339H7.97244V0Z" fill="#1E1E1E"/>
</g>
</g>
</svg>
