<svg width="192" height="192" viewBox="0 0 192 192" fill="none" xmlns="http://www.w3.org/2000/svg">
<mask id="mask0_379_51555" style="mask-type:luminance" maskUnits="userSpaceOnUse" x="0" y="0" width="192" height="192">
<path d="M191.339 0H0V191.339H191.339V0Z" fill="white"/>
</mask>
<g mask="url(#mask0_379_51555)">
<path d="M191.339 0H0.000976562V191.339H191.339V0Z" fill="#E1E1E1"/>
<mask id="mask1_379_51555" style="mask-type:luminance" maskUnits="userSpaceOnUse" x="0" y="0" width="383" height="383">
<path d="M382.679 0H0.00244141V382.677H382.679V0Z" fill="white"/>
</mask>
<g mask="url(#mask1_379_51555)">
<path d="M183.368 0H175.396V127.559H183.368V0Z" fill="#1E1E1E"/>
</g>
<mask id="mask2_379_51555" style="mask-type:luminance" maskUnits="userSpaceOnUse" x="0" y="0" width="383" height="383">
<path d="M382.679 0H0.00244141V382.677H382.679V0Z" fill="white"/>
</mask>
<g mask="url(#mask2_379_51555)">
<path d="M167.422 0H159.449V127.559H167.422V0Z" fill="#1E1E1E"/>
</g>
<mask id="mask3_379_51555" style="mask-type:luminance" maskUnits="userSpaceOnUse" x="0" y="0" width="383" height="383">
<path d="M382.679 0H0.00244141V382.677H382.679V0Z" fill="white"/>
</mask>
<g mask="url(#mask3_379_51555)">
<path d="M151.477 0H143.505V127.559H151.477V0Z" fill="#1E1E1E"/>
</g>
<mask id="mask4_379_51555" style="mask-type:luminance" maskUnits="userSpaceOnUse" x="0" y="0" width="383" height="383">
<path d="M382.679 0H0.00244141V382.677H382.679V0Z" fill="white"/>
</mask>
<g mask="url(#mask4_379_51555)">
<path d="M135.533 0H127.561V127.559H135.533V0Z" fill="#1E1E1E"/>
</g>
<mask id="mask5_379_51555" style="mask-type:luminance" maskUnits="userSpaceOnUse" x="0" y="0" width="383" height="383">
<path d="M382.679 0H0.00244141V382.677H382.679V0Z" fill="white"/>
</mask>
<g mask="url(#mask5_379_51555)">
<path d="M119.589 0H111.616V127.559H119.589V0Z" fill="#1E1E1E"/>
</g>
<mask id="mask6_379_51555" style="mask-type:luminance" maskUnits="userSpaceOnUse" x="0" y="0" width="383" height="383">
<path d="M382.679 0H0.00244141V382.677H382.679V0Z" fill="white"/>
</mask>
<g mask="url(#mask6_379_51555)">
<path d="M103.643 0H95.6704V127.559H103.643V0Z" fill="#1E1E1E"/>
</g>
<mask id="mask7_379_51555" style="mask-type:luminance" maskUnits="userSpaceOnUse" x="0" y="0" width="383" height="383">
<path d="M382.679 0H0.00244141V382.677H382.679V0Z" fill="white"/>
</mask>
<g mask="url(#mask7_379_51555)">
<path d="M87.6985 0H79.7261V127.559H87.6985V0Z" fill="#1E1E1E"/>
</g>
<mask id="mask8_379_51555" style="mask-type:luminance" maskUnits="userSpaceOnUse" x="0" y="0" width="383" height="383">
<path d="M382.679 0H0.00244141V382.677H382.679V0Z" fill="white"/>
</mask>
<g mask="url(#mask8_379_51555)">
<path d="M71.7537 0H63.7812V127.559H71.7537V0Z" fill="#1E1E1E"/>
</g>
<mask id="mask9_379_51555" style="mask-type:luminance" maskUnits="userSpaceOnUse" x="0" y="0" width="383" height="383">
<path d="M382.679 0H0.00244141V382.677H382.679V0Z" fill="white"/>
</mask>
<g mask="url(#mask9_379_51555)">
<path d="M55.8079 0H47.8354V127.559H55.8079V0Z" fill="#1E1E1E"/>
</g>
<mask id="mask10_379_51555" style="mask-type:luminance" maskUnits="userSpaceOnUse" x="0" y="0" width="383" height="383">
<path d="M382.679 0H0.00244141V382.677H382.679V0Z" fill="white"/>
</mask>
<g mask="url(#mask10_379_51555)">
<path d="M39.8636 0H31.8911V127.559H39.8636V0Z" fill="#1E1E1E"/>
</g>
<mask id="mask11_379_51555" style="mask-type:luminance" maskUnits="userSpaceOnUse" x="0" y="0" width="383" height="383">
<path d="M382.679 0H0.00244141V382.677H382.679V0Z" fill="white"/>
</mask>
<g mask="url(#mask11_379_51555)">
<path d="M23.9192 0H15.9468V127.559H23.9192V0Z" fill="#1E1E1E"/>
</g>
<mask id="mask12_379_51555" style="mask-type:luminance" maskUnits="userSpaceOnUse" x="0" y="0" width="383" height="383">
<path d="M382.679 0H0.00244141V382.677H382.679V0Z" fill="white"/>
</mask>
<g mask="url(#mask12_379_51555)">
<path d="M7.97305 0H0.0576172V127.559H7.97305V0Z" fill="#1E1E1E"/>
</g>
<mask id="mask13_379_51555" style="mask-type:luminance" maskUnits="userSpaceOnUse" x="0" y="0" width="383" height="383">
<path d="M382.679 0H0.00244141V382.677H382.679V0Z" fill="white"/>
</mask>
<g mask="url(#mask13_379_51555)">
<path d="M31.8917 127.559H15.9468V255.118H31.8917V127.559Z" fill="#1E1E1E"/>
</g>
<mask id="mask14_379_51555" style="mask-type:luminance" maskUnits="userSpaceOnUse" x="0" y="0" width="383" height="383">
<path d="M382.679 0H0.00244141V382.677H382.679V0Z" fill="white"/>
</mask>
<g mask="url(#mask14_379_51555)">
<path d="M63.7803 127.559H47.8354V255.118H63.7803V127.559Z" fill="#1E1E1E"/>
</g>
<mask id="mask15_379_51555" style="mask-type:luminance" maskUnits="userSpaceOnUse" x="0" y="0" width="383" height="383">
<path d="M382.679 0H0.00244141V382.677H382.679V0Z" fill="white"/>
</mask>
<g mask="url(#mask15_379_51555)">
<path d="M95.6709 127.559H79.7261V255.118H95.6709V127.559Z" fill="#1E1E1E"/>
</g>
<mask id="mask16_379_51555" style="mask-type:luminance" maskUnits="userSpaceOnUse" x="0" y="0" width="383" height="383">
<path d="M382.679 0H0.00244141V382.677H382.679V0Z" fill="white"/>
</mask>
<g mask="url(#mask16_379_51555)">
<path d="M127.561 127.559H111.616V255.118H127.561V127.559Z" fill="#1E1E1E"/>
</g>
<mask id="mask17_379_51555" style="mask-type:luminance" maskUnits="userSpaceOnUse" x="0" y="0" width="383" height="383">
<path d="M382.679 0H0.00244141V382.677H382.679V0Z" fill="white"/>
</mask>
<g mask="url(#mask17_379_51555)">
<path d="M159.45 127.559H143.505V255.118H159.45V127.559Z" fill="#1E1E1E"/>
</g>
<mask id="mask18_379_51555" style="mask-type:luminance" maskUnits="userSpaceOnUse" x="0" y="0" width="383" height="383">
<path d="M382.679 0H0.00244141V382.677H382.679V0Z" fill="white"/>
</mask>
<g mask="url(#mask18_379_51555)">
<path d="M191.34 127.559H175.396V255.118H191.34V127.559Z" fill="#1E1E1E"/>
</g>
</g>
</svg>
