<svg width="192" height="192" viewBox="0 0 192 192" fill="none" xmlns="http://www.w3.org/2000/svg">
<mask id="mask0_379_53513" style="mask-type:luminance" maskUnits="userSpaceOnUse" x="0" y="0" width="192" height="192">
<path d="M191.339 0H0V191.339H191.339V0Z" fill="white"/>
</mask>
<g mask="url(#mask0_379_53513)">
<path d="M191.338 0H-0.000976562V191.339H191.338V0Z" fill="#1E1E1E"/>
<mask id="mask1_379_53513" style="mask-type:luminance" maskUnits="userSpaceOnUse" x="-1" y="0" width="384" height="383">
<path d="M382.674 0H-0.00292969V382.677H382.674V0Z" fill="white"/>
</mask>
<g mask="url(#mask1_379_53513)">
<path d="M199.309 0H191.336V127.559H199.309V0Z" fill="#E1E1E1"/>
</g>
<mask id="mask2_379_53513" style="mask-type:luminance" maskUnits="userSpaceOnUse" x="-1" y="0" width="384" height="383">
<path d="M382.674 0H-0.00292969V382.677H382.674V0Z" fill="white"/>
</mask>
<g mask="url(#mask2_379_53513)">
<path d="M183.365 0H175.392V127.559H183.365V0Z" fill="#E1E1E1"/>
</g>
<mask id="mask3_379_53513" style="mask-type:luminance" maskUnits="userSpaceOnUse" x="-1" y="0" width="384" height="383">
<path d="M382.674 0H-0.00292969V382.677H382.674V0Z" fill="white"/>
</mask>
<g mask="url(#mask3_379_53513)">
<path d="M167.418 0H159.446V127.559H167.418V0Z" fill="#E1E1E1"/>
</g>
<mask id="mask4_379_53513" style="mask-type:luminance" maskUnits="userSpaceOnUse" x="-1" y="0" width="384" height="383">
<path d="M382.674 0H-0.00292969V382.677H382.674V0Z" fill="white"/>
</mask>
<g mask="url(#mask4_379_53513)">
<path d="M151.474 0H143.501V127.559H151.474V0Z" fill="#E1E1E1"/>
</g>
<mask id="mask5_379_53513" style="mask-type:luminance" maskUnits="userSpaceOnUse" x="-1" y="0" width="384" height="383">
<path d="M382.674 0H-0.00292969V382.677H382.674V0Z" fill="white"/>
</mask>
<g mask="url(#mask5_379_53513)">
<path d="M135.53 0H127.557V127.559H135.53V0Z" fill="#E1E1E1"/>
</g>
<mask id="mask6_379_53513" style="mask-type:luminance" maskUnits="userSpaceOnUse" x="-1" y="0" width="384" height="383">
<path d="M382.674 0H-0.00292969V382.677H382.674V0Z" fill="white"/>
</mask>
<g mask="url(#mask6_379_53513)">
<path d="M119.585 0H111.613V127.559H119.585V0Z" fill="#E1E1E1"/>
</g>
<mask id="mask7_379_53513" style="mask-type:luminance" maskUnits="userSpaceOnUse" x="-1" y="0" width="384" height="383">
<path d="M382.674 0H-0.00292969V382.677H382.674V0Z" fill="white"/>
</mask>
<g mask="url(#mask7_379_53513)">
<path d="M103.639 0H95.6665V127.559H103.639V0Z" fill="#E1E1E1"/>
</g>
<mask id="mask8_379_53513" style="mask-type:luminance" maskUnits="userSpaceOnUse" x="-1" y="0" width="384" height="383">
<path d="M382.674 0H-0.00292969V382.677H382.674V0Z" fill="white"/>
</mask>
<g mask="url(#mask8_379_53513)">
<path d="M87.6946 0H79.7222V127.559H87.6946V0Z" fill="#E1E1E1"/>
</g>
<mask id="mask9_379_53513" style="mask-type:luminance" maskUnits="userSpaceOnUse" x="-1" y="0" width="384" height="383">
<path d="M382.674 0H-0.00292969V382.677H382.674V0Z" fill="white"/>
</mask>
<g mask="url(#mask9_379_53513)">
<path d="M71.7503 0H63.7778V127.559H71.7503V0Z" fill="#E1E1E1"/>
</g>
<mask id="mask10_379_53513" style="mask-type:luminance" maskUnits="userSpaceOnUse" x="-1" y="0" width="384" height="383">
<path d="M382.674 0H-0.00292969V382.677H382.674V0Z" fill="white"/>
</mask>
<g mask="url(#mask10_379_53513)">
<path d="M55.8045 0H47.832V127.559H55.8045V0Z" fill="#E1E1E1"/>
</g>
<mask id="mask11_379_53513" style="mask-type:luminance" maskUnits="userSpaceOnUse" x="-1" y="0" width="384" height="383">
<path d="M382.674 0H-0.00292969V382.677H382.674V0Z" fill="white"/>
</mask>
<g mask="url(#mask11_379_53513)">
<path d="M39.8601 0H31.8877V127.559H39.8601V0Z" fill="#E1E1E1"/>
</g>
<mask id="mask12_379_53513" style="mask-type:luminance" maskUnits="userSpaceOnUse" x="-1" y="0" width="384" height="383">
<path d="M382.674 0H-0.00292969V382.677H382.674V0Z" fill="white"/>
</mask>
<g mask="url(#mask12_379_53513)">
<path d="M23.9158 0H15.9434V127.559H23.9158V0Z" fill="#E1E1E1"/>
</g>
<mask id="mask13_379_53513" style="mask-type:luminance" maskUnits="userSpaceOnUse" x="-1" y="0" width="384" height="383">
<path d="M382.674 0H-0.00292969V382.677H382.674V0Z" fill="white"/>
</mask>
<g mask="url(#mask13_379_53513)">
<path d="M7.97111 0H0.0556641V127.559H7.97111V0Z" fill="#E1E1E1"/>
</g>
<mask id="mask14_379_53513" style="mask-type:luminance" maskUnits="userSpaceOnUse" x="-1" y="0" width="384" height="383">
<path d="M382.674 0H-0.00292969V382.677H382.674V0Z" fill="white"/>
</mask>
<g mask="url(#mask14_379_53513)">
<path d="M31.8882 127.559H15.9434V255.118H31.8882V127.559Z" fill="#E1E1E1"/>
</g>
<mask id="mask15_379_53513" style="mask-type:luminance" maskUnits="userSpaceOnUse" x="-1" y="0" width="384" height="383">
<path d="M382.674 0H-0.00292969V382.677H382.674V0Z" fill="white"/>
</mask>
<g mask="url(#mask15_379_53513)">
<path d="M63.7769 127.559H47.832V255.118H63.7769V127.559Z" fill="#E1E1E1"/>
</g>
<mask id="mask16_379_53513" style="mask-type:luminance" maskUnits="userSpaceOnUse" x="-1" y="0" width="384" height="383">
<path d="M382.674 0H-0.00292969V382.677H382.674V0Z" fill="white"/>
</mask>
<g mask="url(#mask16_379_53513)">
<path d="M95.667 127.559H79.7222V255.118H95.667V127.559Z" fill="#E1E1E1"/>
</g>
<mask id="mask17_379_53513" style="mask-type:luminance" maskUnits="userSpaceOnUse" x="-1" y="0" width="384" height="383">
<path d="M382.674 0H-0.00292969V382.677H382.674V0Z" fill="white"/>
</mask>
<g mask="url(#mask17_379_53513)">
<path d="M127.558 127.559H111.613V255.118H127.558V127.559Z" fill="#E1E1E1"/>
</g>
<mask id="mask18_379_53513" style="mask-type:luminance" maskUnits="userSpaceOnUse" x="-1" y="0" width="384" height="383">
<path d="M382.674 0H-0.00292969V382.677H382.674V0Z" fill="white"/>
</mask>
<g mask="url(#mask18_379_53513)">
<path d="M159.446 127.559H143.501V255.118H159.446V127.559Z" fill="#E1E1E1"/>
</g>
<mask id="mask19_379_53513" style="mask-type:luminance" maskUnits="userSpaceOnUse" x="-1" y="0" width="384" height="383">
<path d="M382.674 0H-0.00292969V382.677H382.674V0Z" fill="white"/>
</mask>
<g mask="url(#mask19_379_53513)">
<path d="M191.337 127.559H175.392V255.118H191.337V127.559Z" fill="#E1E1E1"/>
</g>
</g>
</svg>
