<svg width="192" height="192" viewBox="0 0 192 192" fill="none" xmlns="http://www.w3.org/2000/svg">
<mask id="mask0_379_50710" style="mask-type:luminance" maskUnits="userSpaceOnUse" x="0" y="0" width="192" height="192">
<path d="M191.339 0H0V191.339H191.339V0Z" fill="white"/>
</mask>
<g mask="url(#mask0_379_50710)">
<path d="M191.339 0H0V191.339H191.339V0Z" fill="#E1E1E1"/>
<mask id="mask1_379_50710" style="mask-type:luminance" maskUnits="userSpaceOnUse" x="-1" y="0" width="384" height="383">
<path d="M382.676 0H-0.000976562V382.677H382.676V0Z" fill="white"/>
</mask>
<g mask="url(#mask1_379_50710)">
<path d="M183.366 0H175.393V127.559H183.366V0Z" fill="#E1E1E1"/>
</g>
<mask id="mask2_379_50710" style="mask-type:luminance" maskUnits="userSpaceOnUse" x="-1" y="0" width="384" height="383">
<path d="M382.676 0H-0.000976562V382.677H382.676V0Z" fill="white"/>
</mask>
<g mask="url(#mask2_379_50710)">
<path d="M167.421 0H159.449V127.559H167.421V0Z" fill="#E1E1E1"/>
</g>
<mask id="mask3_379_50710" style="mask-type:luminance" maskUnits="userSpaceOnUse" x="-1" y="0" width="384" height="383">
<path d="M382.676 0H-0.000976562V382.677H382.676V0Z" fill="white"/>
</mask>
<g mask="url(#mask3_379_50710)">
<path d="M151.476 0H143.504V127.559H151.476V0Z" fill="#E1E1E1"/>
</g>
<mask id="mask4_379_50710" style="mask-type:luminance" maskUnits="userSpaceOnUse" x="-1" y="0" width="384" height="383">
<path d="M382.676 0H-0.000976562V382.677H382.676V0Z" fill="white"/>
</mask>
<g mask="url(#mask4_379_50710)">
<path d="M135.53 0H127.558V127.559H135.53V0Z" fill="#E1E1E1"/>
</g>
<mask id="mask5_379_50710" style="mask-type:luminance" maskUnits="userSpaceOnUse" x="-1" y="0" width="384" height="383">
<path d="M382.676 0H-0.000976562V382.677H382.676V0Z" fill="white"/>
</mask>
<g mask="url(#mask5_379_50710)">
<path d="M119.586 0H111.614V127.559H119.586V0Z" fill="#E1E1E1"/>
</g>
<mask id="mask6_379_50710" style="mask-type:luminance" maskUnits="userSpaceOnUse" x="-1" y="0" width="384" height="383">
<path d="M382.676 0H-0.000976562V382.677H382.676V0Z" fill="white"/>
</mask>
<g mask="url(#mask6_379_50710)">
<path d="M103.642 0H95.6694V127.559H103.642V0Z" fill="#E1E1E1"/>
</g>
<mask id="mask7_379_50710" style="mask-type:luminance" maskUnits="userSpaceOnUse" x="-1" y="0" width="384" height="383">
<path d="M382.676 0H-0.000976562V382.677H382.676V0Z" fill="white"/>
</mask>
<g mask="url(#mask7_379_50710)">
<path d="M87.697 0H79.7246V127.559H87.697V0Z" fill="#E1E1E1"/>
</g>
<mask id="mask8_379_50710" style="mask-type:luminance" maskUnits="userSpaceOnUse" x="-1" y="0" width="384" height="383">
<path d="M382.676 0H-0.000976562V382.677H382.676V0Z" fill="white"/>
</mask>
<g mask="url(#mask8_379_50710)">
<path d="M71.7512 0H63.7788V127.559H71.7512V0Z" fill="#E1E1E1"/>
</g>
<mask id="mask9_379_50710" style="mask-type:luminance" maskUnits="userSpaceOnUse" x="-1" y="0" width="384" height="383">
<path d="M382.676 0H-0.000976562V382.677H382.676V0Z" fill="white"/>
</mask>
<g mask="url(#mask9_379_50710)">
<path d="M55.8069 0H47.8345V127.559H55.8069V0Z" fill="#E1E1E1"/>
</g>
<mask id="mask10_379_50710" style="mask-type:luminance" maskUnits="userSpaceOnUse" x="-1" y="0" width="384" height="383">
<path d="M382.676 0H-0.000976562V382.677H382.676V0Z" fill="white"/>
</mask>
<g mask="url(#mask10_379_50710)">
<path d="M39.8621 0H31.8896V127.559H39.8621V0Z" fill="#E1E1E1"/>
</g>
<mask id="mask11_379_50710" style="mask-type:luminance" maskUnits="userSpaceOnUse" x="-1" y="0" width="384" height="383">
<path d="M382.676 0H-0.000976562V382.677H382.676V0Z" fill="white"/>
</mask>
<g mask="url(#mask11_379_50710)">
<path d="M23.9168 0H15.9443V127.559H23.9168V0Z" fill="#E1E1E1"/>
</g>
<mask id="mask12_379_50710" style="mask-type:luminance" maskUnits="userSpaceOnUse" x="-1" y="0" width="384" height="383">
<path d="M382.676 0H-0.000976562V382.677H382.676V0Z" fill="white"/>
</mask>
<g mask="url(#mask12_379_50710)">
<path d="M7.97198 0H0.0566406V127.559H7.97198V0Z" fill="#E1E1E1"/>
</g>
<mask id="mask13_379_50710" style="mask-type:luminance" maskUnits="userSpaceOnUse" x="-1" y="0" width="384" height="383">
<path d="M382.676 0H-0.000976562V382.677H382.676V0Z" fill="white"/>
</mask>
<g mask="url(#mask13_379_50710)">
<path d="M31.8892 127.559H15.9443V255.118H31.8892V127.559Z" fill="#E1E1E1"/>
</g>
<mask id="mask14_379_50710" style="mask-type:luminance" maskUnits="userSpaceOnUse" x="-1" y="0" width="384" height="383">
<path d="M382.676 0H-0.000976562V382.677H382.676V0Z" fill="white"/>
</mask>
<g mask="url(#mask14_379_50710)">
<path d="M63.7793 127.559H47.8345V255.118H63.7793V127.559Z" fill="#E1E1E1"/>
</g>
<mask id="mask15_379_50710" style="mask-type:luminance" maskUnits="userSpaceOnUse" x="-1" y="0" width="384" height="383">
<path d="M382.676 0H-0.000976562V382.677H382.676V0Z" fill="white"/>
</mask>
<g mask="url(#mask15_379_50710)">
<path d="M95.6695 127.559H79.7246V255.118H95.6695V127.559Z" fill="#E1E1E1"/>
</g>
<mask id="mask16_379_50710" style="mask-type:luminance" maskUnits="userSpaceOnUse" x="-1" y="0" width="384" height="383">
<path d="M382.676 0H-0.000976562V382.677H382.676V0Z" fill="white"/>
</mask>
<g mask="url(#mask16_379_50710)">
<path d="M127.559 127.559H111.614V255.118H127.559V127.559Z" fill="#E1E1E1"/>
</g>
<mask id="mask17_379_50710" style="mask-type:luminance" maskUnits="userSpaceOnUse" x="-1" y="0" width="384" height="383">
<path d="M382.676 0H-0.000976562V382.677H382.676V0Z" fill="white"/>
</mask>
<g mask="url(#mask17_379_50710)">
<path d="M159.449 127.559H143.504V255.118H159.449V127.559Z" fill="#E1E1E1"/>
</g>
<mask id="mask18_379_50710" style="mask-type:luminance" maskUnits="userSpaceOnUse" x="-1" y="0" width="384" height="383">
<path d="M382.676 0H-0.000976562V382.677H382.676V0Z" fill="white"/>
</mask>
<g mask="url(#mask18_379_50710)">
<path d="M191.338 127.559H175.393V255.118H191.338V127.559Z" fill="#E1E1E1"/>
</g>
</g>
</svg>
