<svg width="200" height="200" viewBox="0 0 200 200" fill="none" xmlns="http://www.w3.org/2000/svg">
<mask id="mask0_379_53513" style="mask-type:luminance" maskUnits="userSpaceOnUse" x="0" y="0" width="200" height="200">
<path d="M200 0H0V200H200V0Z" fill="white"/>
</mask>
<g mask="url(#mask0_379_53513)">
<path d="M199.999 0H-0.000976562V200H199.999V0Z" fill="#1E1E1E"/>
<mask id="mask1_379_53513" style="mask-type:luminance" maskUnits="userSpaceOnUse" x="-1" y="0" width="401" height="400">
<path d="M399.997 0H-0.00292969V400H399.997V0Z" fill="white"/>
</mask>
<g mask="url(#mask1_379_53513)">
<path d="M208.331 0H199.998V133.333H208.331V0Z" fill="#E1E1E1"/>
</g>
<mask id="mask2_379_53513" style="mask-type:luminance" maskUnits="userSpaceOnUse" x="-1" y="0" width="401" height="400">
<path d="M399.997 0H-0.00292969V400H399.997V0Z" fill="white"/>
</mask>
<g mask="url(#mask2_379_53513)">
<path d="M191.665 0H183.332V133.333H191.665V0Z" fill="#E1E1E1"/>
</g>
<mask id="mask3_379_53513" style="mask-type:luminance" maskUnits="userSpaceOnUse" x="-1" y="0" width="401" height="400">
<path d="M399.997 0H-0.00292969V400H399.997V0Z" fill="white"/>
</mask>
<g mask="url(#mask3_379_53513)">
<path d="M174.997 0H166.664V133.333H174.997V0Z" fill="#E1E1E1"/>
</g>
<mask id="mask4_379_53513" style="mask-type:luminance" maskUnits="userSpaceOnUse" x="-1" y="0" width="401" height="400">
<path d="M399.997 0H-0.00292969V400H399.997V0Z" fill="white"/>
</mask>
<g mask="url(#mask4_379_53513)">
<path d="M158.331 0H149.998V133.333H158.331V0Z" fill="#E1E1E1"/>
</g>
<mask id="mask5_379_53513" style="mask-type:luminance" maskUnits="userSpaceOnUse" x="-1" y="0" width="401" height="400">
<path d="M399.997 0H-0.00292969V400H399.997V0Z" fill="white"/>
</mask>
<g mask="url(#mask5_379_53513)">
<path d="M141.665 0H133.332V133.333H141.665V0Z" fill="#E1E1E1"/>
</g>
<mask id="mask6_379_53513" style="mask-type:luminance" maskUnits="userSpaceOnUse" x="-1" y="0" width="401" height="400">
<path d="M399.997 0H-0.00292969V400H399.997V0Z" fill="white"/>
</mask>
<g mask="url(#mask6_379_53513)">
<path d="M124.998 0H116.665V133.333H124.998V0Z" fill="#E1E1E1"/>
</g>
<mask id="mask7_379_53513" style="mask-type:luminance" maskUnits="userSpaceOnUse" x="-1" y="0" width="401" height="400">
<path d="M399.997 0H-0.00292969V400H399.997V0Z" fill="white"/>
</mask>
<g mask="url(#mask7_379_53513)">
<path d="M108.33 0H99.9971V133.333H108.33V0Z" fill="#E1E1E1"/>
</g>
<mask id="mask8_379_53513" style="mask-type:luminance" maskUnits="userSpaceOnUse" x="-1" y="0" width="401" height="400">
<path d="M399.997 0H-0.00292969V400H399.997V0Z" fill="white"/>
</mask>
<g mask="url(#mask8_379_53513)">
<path d="M91.6644 0H83.3311V133.333H91.6644V0Z" fill="#E1E1E1"/>
</g>
<mask id="mask9_379_53513" style="mask-type:luminance" maskUnits="userSpaceOnUse" x="-1" y="0" width="401" height="400">
<path d="M399.997 0H-0.00292969V400H399.997V0Z" fill="white"/>
</mask>
<g mask="url(#mask9_379_53513)">
<path d="M74.9984 0H66.665V133.333H74.9984V0Z" fill="#E1E1E1"/>
</g>
<mask id="mask10_379_53513" style="mask-type:luminance" maskUnits="userSpaceOnUse" x="-1" y="0" width="401" height="400">
<path d="M399.997 0H-0.00292969V400H399.997V0Z" fill="white"/>
</mask>
<g mask="url(#mask10_379_53513)">
<path d="M58.3304 0H49.9971V133.333H58.3304V0Z" fill="#E1E1E1"/>
</g>
<mask id="mask11_379_53513" style="mask-type:luminance" maskUnits="userSpaceOnUse" x="-1" y="0" width="401" height="400">
<path d="M399.997 0H-0.00292969V400H399.997V0Z" fill="white"/>
</mask>
<g mask="url(#mask11_379_53513)">
<path d="M41.6644 0H33.3311V133.333H41.6644V0Z" fill="#E1E1E1"/>
</g>
<mask id="mask12_379_53513" style="mask-type:luminance" maskUnits="userSpaceOnUse" x="-1" y="0" width="401" height="400">
<path d="M399.997 0H-0.00292969V400H399.997V0Z" fill="white"/>
</mask>
<g mask="url(#mask12_379_53513)">
<path d="M24.9984 0H16.665V133.333H24.9984V0Z" fill="#E1E1E1"/>
</g>
<mask id="mask13_379_53513" style="mask-type:luminance" maskUnits="userSpaceOnUse" x="-1" y="0" width="401" height="400">
<path d="M399.997 0H-0.00292969V400H399.997V0Z" fill="white"/>
</mask>
<g mask="url(#mask13_379_53513)">
<path d="M8.33187 0H0.0581055V133.333H8.33187V0Z" fill="#E1E1E1"/>
</g>
<mask id="mask14_379_53513" style="mask-type:luminance" maskUnits="userSpaceOnUse" x="-1" y="0" width="401" height="400">
<path d="M399.997 0H-0.00292969V400H399.997V0Z" fill="white"/>
</mask>
<g mask="url(#mask14_379_53513)">
<path d="M33.3317 133.332H16.665V266.665H33.3317V133.332Z" fill="#E1E1E1"/>
</g>
<mask id="mask15_379_53513" style="mask-type:luminance" maskUnits="userSpaceOnUse" x="-1" y="0" width="401" height="400">
<path d="M399.997 0H-0.00292969V400H399.997V0Z" fill="white"/>
</mask>
<g mask="url(#mask15_379_53513)">
<path d="M66.6637 133.332H49.9971V266.665H66.6637V133.332Z" fill="#E1E1E1"/>
</g>
<mask id="mask16_379_53513" style="mask-type:luminance" maskUnits="userSpaceOnUse" x="-1" y="0" width="401" height="400">
<path d="M399.997 0H-0.00292969V400H399.997V0Z" fill="white"/>
</mask>
<g mask="url(#mask16_379_53513)">
<path d="M99.9977 133.332H83.3311V266.665H99.9977V133.332Z" fill="#E1E1E1"/>
</g>
<mask id="mask17_379_53513" style="mask-type:luminance" maskUnits="userSpaceOnUse" x="-1" y="0" width="401" height="400">
<path d="M399.997 0H-0.00292969V400H399.997V0Z" fill="white"/>
</mask>
<g mask="url(#mask17_379_53513)">
<path d="M133.332 133.332H116.665V266.665H133.332V133.332Z" fill="#E1E1E1"/>
</g>
<mask id="mask18_379_53513" style="mask-type:luminance" maskUnits="userSpaceOnUse" x="-1" y="0" width="401" height="400">
<path d="M399.997 0H-0.00292969V400H399.997V0Z" fill="white"/>
</mask>
<g mask="url(#mask18_379_53513)">
<path d="M166.664 133.332H149.998V266.665H166.664V133.332Z" fill="#E1E1E1"/>
</g>
<mask id="mask19_379_53513" style="mask-type:luminance" maskUnits="userSpaceOnUse" x="-1" y="0" width="401" height="400">
<path d="M399.997 0H-0.00292969V400H399.997V0Z" fill="white"/>
</mask>
<g mask="url(#mask19_379_53513)">
<path d="M199.998 133.332H183.332V266.665H199.998V133.332Z" fill="#E1E1E1"/>
</g>
</g>
</svg>
