<svg width="200" height="200" viewBox="0 0 200 200" fill="none" xmlns="http://www.w3.org/2000/svg">
<mask id="mask0_379_53386" style="mask-type:luminance" maskUnits="userSpaceOnUse" x="0" y="0" width="200" height="200">
<path d="M200 0H0V200H200V0Z" fill="white"/>
</mask>
<g mask="url(#mask0_379_53386)">
<path d="M199.999 0H-0.000976562V200H199.999V0Z" fill="#1E1E1E"/>
<mask id="mask1_379_53386" style="mask-type:luminance" maskUnits="userSpaceOnUse" x="-1" y="0" width="401" height="400">
<path d="M399.998 0H-0.00244141V400H399.998V0Z" fill="white"/>
</mask>
<g mask="url(#mask1_379_53386)">
<path d="M33.3322 0H16.6655V200H33.3322V0Z" fill="#E1E1E1"/>
</g>
<mask id="mask2_379_53386" style="mask-type:luminance" maskUnits="userSpaceOnUse" x="-1" y="0" width="401" height="400">
<path d="M399.998 0H-0.00244141V400H399.998V0Z" fill="white"/>
</mask>
<g mask="url(#mask2_379_53386)">
<path d="M66.6642 0H49.9976V200H66.6642V0Z" fill="#E1E1E1"/>
</g>
<mask id="mask3_379_53386" style="mask-type:luminance" maskUnits="userSpaceOnUse" x="-1" y="0" width="401" height="400">
<path d="M399.998 0H-0.00244141V400H399.998V0Z" fill="white"/>
</mask>
<g mask="url(#mask3_379_53386)">
<path d="M99.9982 0H83.3315V200H99.9982V0Z" fill="#E1E1E1"/>
</g>
<mask id="mask4_379_53386" style="mask-type:luminance" maskUnits="userSpaceOnUse" x="-1" y="0" width="401" height="400">
<path d="M399.998 0H-0.00244141V400H399.998V0Z" fill="white"/>
</mask>
<g mask="url(#mask4_379_53386)">
<path d="M133.333 0H116.666V200H133.333V0Z" fill="#E1E1E1"/>
</g>
<mask id="mask5_379_53386" style="mask-type:luminance" maskUnits="userSpaceOnUse" x="-1" y="0" width="401" height="400">
<path d="M399.998 0H-0.00244141V400H399.998V0Z" fill="white"/>
</mask>
<g mask="url(#mask5_379_53386)">
<path d="M166.665 0H149.998V200H166.665V0Z" fill="#E1E1E1"/>
</g>
<mask id="mask6_379_53386" style="mask-type:luminance" maskUnits="userSpaceOnUse" x="-1" y="0" width="401" height="400">
<path d="M399.998 0H-0.00244141V400H399.998V0Z" fill="white"/>
</mask>
<g mask="url(#mask6_379_53386)">
<path d="M199.999 0H183.332V200H199.999V0Z" fill="#E1E1E1"/>
</g>
</g>
</svg>
