<svg width="200" height="200" viewBox="0 0 200 200" fill="none" xmlns="http://www.w3.org/2000/svg">
<mask id="mask0_379_51555" style="mask-type:luminance" maskUnits="userSpaceOnUse" x="0" y="0" width="200" height="200">
<path d="M200 0H0V200H200V0Z" fill="white"/>
</mask>
<g mask="url(#mask0_379_51555)">
<path d="M200.001 0H0.000976562V200H200.001V0Z" fill="#E1E1E1"/>
<mask id="mask1_379_51555" style="mask-type:luminance" maskUnits="userSpaceOnUse" x="0" y="0" width="401" height="400">
<path d="M400.002 0H0.00244141V400H400.002V0Z" fill="white"/>
</mask>
<g mask="url(#mask1_379_51555)">
<path d="M191.669 0H183.335V133.333H191.669V0Z" fill="#1E1E1E"/>
</g>
<mask id="mask2_379_51555" style="mask-type:luminance" maskUnits="userSpaceOnUse" x="0" y="0" width="401" height="400">
<path d="M400.002 0H0.00244141V400H400.002V0Z" fill="white"/>
</mask>
<g mask="url(#mask2_379_51555)">
<path d="M175.001 0H166.667V133.333H175.001V0Z" fill="#1E1E1E"/>
</g>
<mask id="mask3_379_51555" style="mask-type:luminance" maskUnits="userSpaceOnUse" x="0" y="0" width="401" height="400">
<path d="M400.002 0H0.00244141V400H400.002V0Z" fill="white"/>
</mask>
<g mask="url(#mask3_379_51555)">
<path d="M158.334 0H150.001V133.333H158.334V0Z" fill="#1E1E1E"/>
</g>
<mask id="mask4_379_51555" style="mask-type:luminance" maskUnits="userSpaceOnUse" x="0" y="0" width="401" height="400">
<path d="M400.002 0H0.00244141V400H400.002V0Z" fill="white"/>
</mask>
<g mask="url(#mask4_379_51555)">
<path d="M141.668 0H133.335V133.333H141.668V0Z" fill="#1E1E1E"/>
</g>
<mask id="mask5_379_51555" style="mask-type:luminance" maskUnits="userSpaceOnUse" x="0" y="0" width="401" height="400">
<path d="M400.002 0H0.00244141V400H400.002V0Z" fill="white"/>
</mask>
<g mask="url(#mask5_379_51555)">
<path d="M125.003 0H116.669V133.333H125.003V0Z" fill="#1E1E1E"/>
</g>
<mask id="mask6_379_51555" style="mask-type:luminance" maskUnits="userSpaceOnUse" x="0" y="0" width="401" height="400">
<path d="M400.002 0H0.00244141V400H400.002V0Z" fill="white"/>
</mask>
<g mask="url(#mask6_379_51555)">
<path d="M108.334 0H100.001V133.333H108.334V0Z" fill="#1E1E1E"/>
</g>
<mask id="mask7_379_51555" style="mask-type:luminance" maskUnits="userSpaceOnUse" x="0" y="0" width="401" height="400">
<path d="M400.002 0H0.00244141V400H400.002V0Z" fill="white"/>
</mask>
<g mask="url(#mask7_379_51555)">
<path d="M91.6683 0H83.335V133.333H91.6683V0Z" fill="#1E1E1E"/>
</g>
<mask id="mask8_379_51555" style="mask-type:luminance" maskUnits="userSpaceOnUse" x="0" y="0" width="401" height="400">
<path d="M400.002 0H0.00244141V400H400.002V0Z" fill="white"/>
</mask>
<g mask="url(#mask8_379_51555)">
<path d="M75.0018 0H66.6685V133.333H75.0018V0Z" fill="#1E1E1E"/>
</g>
<mask id="mask9_379_51555" style="mask-type:luminance" maskUnits="userSpaceOnUse" x="0" y="0" width="401" height="400">
<path d="M400.002 0H0.00244141V400H400.002V0Z" fill="white"/>
</mask>
<g mask="url(#mask9_379_51555)">
<path d="M58.3343 0H50.001V133.333H58.3343V0Z" fill="#1E1E1E"/>
</g>
<mask id="mask10_379_51555" style="mask-type:luminance" maskUnits="userSpaceOnUse" x="0" y="0" width="401" height="400">
<path d="M400.002 0H0.00244141V400H400.002V0Z" fill="white"/>
</mask>
<g mask="url(#mask10_379_51555)">
<path d="M41.6683 0H33.335V133.333H41.6683V0Z" fill="#1E1E1E"/>
</g>
<mask id="mask11_379_51555" style="mask-type:luminance" maskUnits="userSpaceOnUse" x="0" y="0" width="401" height="400">
<path d="M400.002 0H0.00244141V400H400.002V0Z" fill="white"/>
</mask>
<g mask="url(#mask11_379_51555)">
<path d="M25.0018 0H16.6685V133.333H25.0018V0Z" fill="#1E1E1E"/>
</g>
<mask id="mask12_379_51555" style="mask-type:luminance" maskUnits="userSpaceOnUse" x="0" y="0" width="401" height="400">
<path d="M400.002 0H0.00244141V400H400.002V0Z" fill="white"/>
</mask>
<g mask="url(#mask12_379_51555)">
<path d="M8.3338 0H0.0600586V133.333H8.3338V0Z" fill="#1E1E1E"/>
</g>
<mask id="mask13_379_51555" style="mask-type:luminance" maskUnits="userSpaceOnUse" x="0" y="0" width="401" height="400">
<path d="M400.002 0H0.00244141V400H400.002V0Z" fill="white"/>
</mask>
<g mask="url(#mask13_379_51555)">
<path d="M33.3351 133.332H16.6685V266.665H33.3351V133.332Z" fill="#1E1E1E"/>
</g>
<mask id="mask14_379_51555" style="mask-type:luminance" maskUnits="userSpaceOnUse" x="0" y="0" width="401" height="400">
<path d="M400.002 0H0.00244141V400H400.002V0Z" fill="white"/>
</mask>
<g mask="url(#mask14_379_51555)">
<path d="M66.6676 133.332H50.001V266.665H66.6676V133.332Z" fill="#1E1E1E"/>
</g>
<mask id="mask15_379_51555" style="mask-type:luminance" maskUnits="userSpaceOnUse" x="0" y="0" width="401" height="400">
<path d="M400.002 0H0.00244141V400H400.002V0Z" fill="white"/>
</mask>
<g mask="url(#mask15_379_51555)">
<path d="M100.002 133.332H83.335V266.665H100.002V133.332Z" fill="#1E1E1E"/>
</g>
<mask id="mask16_379_51555" style="mask-type:luminance" maskUnits="userSpaceOnUse" x="0" y="0" width="401" height="400">
<path d="M400.002 0H0.00244141V400H400.002V0Z" fill="white"/>
</mask>
<g mask="url(#mask16_379_51555)">
<path d="M133.336 133.332H116.669V266.665H133.336V133.332Z" fill="#1E1E1E"/>
</g>
<mask id="mask17_379_51555" style="mask-type:luminance" maskUnits="userSpaceOnUse" x="0" y="0" width="401" height="400">
<path d="M400.002 0H0.00244141V400H400.002V0Z" fill="white"/>
</mask>
<g mask="url(#mask17_379_51555)">
<path d="M166.668 133.332H150.001V266.665H166.668V133.332Z" fill="#1E1E1E"/>
</g>
<mask id="mask18_379_51555" style="mask-type:luminance" maskUnits="userSpaceOnUse" x="0" y="0" width="401" height="400">
<path d="M400.002 0H0.00244141V400H400.002V0Z" fill="white"/>
</mask>
<g mask="url(#mask18_379_51555)">
<path d="M200.002 133.332H183.335V266.665H200.002V133.332Z" fill="#1E1E1E"/>
</g>
</g>
</svg>
