<svg width="200" height="200" viewBox="0 0 200 200" fill="none" xmlns="http://www.w3.org/2000/svg">
<g clip-path="url(#clip0_382_7750)">
<rect width="200" height="200" fill="#1E1E1E"/>
<path d="M200 0H0V200H200V0Z" fill="#F7F7F7"/>
<path d="M12.5 133.333H0V200H12.5V133.333Z" fill="#F7F7F7"/>
<path d="M25.8927 133.333H14.1367V200H25.8927V133.333Z" fill="#F7F7F7"/>
<path d="M39.2857 133.333H28.2739V200H39.2857V133.333Z" fill="#F7F7F7"/>
<path d="M52.6786 133.333H42.4106V200H52.6786V133.333Z" fill="#F7F7F7"/>
<path d="M66.0711 133.333H56.5474V200H66.0711V133.333Z" fill="#F7F7F7"/>
<path d="M79.4644 133.333H70.6846V200H79.4644V133.333Z" fill="#F7F7F7"/>
<path d="M92.8573 133.333H84.8218V200H92.8573V133.333Z" fill="#F7F7F7"/>
<path d="M106.25 133.333H98.958V200H106.25V133.333Z" fill="#F7F7F7"/>
<path d="M119.643 133.333H113.095V200H119.643V133.333Z" fill="#F7F7F7"/>
<path d="M133.035 133.333H127.232V200H133.035V133.333Z" fill="#F7F7F7"/>
<path d="M146.428 133.333H141.369V200H146.428V133.333Z" fill="#F7F7F7"/>
<path d="M159.821 133.333H155.506V200H159.821V133.333Z" fill="#F7F7F7"/>
<path d="M173.215 133.333H169.643V200H173.215V133.333Z" fill="#F7F7F7"/>
<path d="M186.607 133.333H183.78V200H186.607V133.333Z" fill="#F7F7F7"/>
<path d="M200 133.333H197.917V200H200V133.333Z" fill="#F7F7F7"/>
<path d="M12.5 0H0V66.6667H12.5V0Z" fill="#F7F7F7"/>
<path d="M25.8927 0H14.1367V66.6667H25.8927V0Z" fill="#F7F7F7"/>
<path d="M39.2857 0H28.2739V66.6667H39.2857V0Z" fill="#F7F7F7"/>
<path d="M52.6786 0H42.4106V66.6667H52.6786V0Z" fill="#F7F7F7"/>
<path d="M66.0711 0H56.5474V66.6667H66.0711V0Z" fill="#F7F7F7"/>
<path d="M79.4644 0H70.6846V66.6667H79.4644V0Z" fill="#F7F7F7"/>
<path d="M92.8573 0H84.8218V66.6667H92.8573V0Z" fill="#F7F7F7"/>
<path d="M106.25 0H98.958V66.6667H106.25V0Z" fill="#F7F7F7"/>
<path d="M119.643 0H113.095V66.6667H119.643V0Z" fill="#F7F7F7"/>
<path d="M133.035 0H127.232V66.6667H133.035V0Z" fill="#F7F7F7"/>
<path d="M146.428 0H141.369V66.6667H146.428V0Z" fill="#F7F7F7"/>
<path d="M159.821 0H155.506V66.6667H159.821V0Z" fill="#F7F7F7"/>
<path d="M173.215 0H169.643V66.6667H173.215V0Z" fill="#F7F7F7"/>
<path d="M186.607 0H183.78V66.6667H186.607V0Z" fill="#F7F7F7"/>
<path d="M200 0H197.917V66.6667H200V0Z" fill="#F7F7F7"/>
<path d="M200 66.667H187.5V133.334H200V66.667Z" fill="#1D1D1D"/>
<path d="M185.863 66.667H174.107V133.334H185.863V66.667Z" fill="#1D1D1D"/>
<path d="M171.726 66.667H160.714V133.334H171.726V66.667Z" fill="#1D1D1D"/>
<path d="M157.589 66.667H147.321V133.334H157.589V66.667Z" fill="#1D1D1D"/>
<path d="M143.452 66.667H133.929V133.334H143.452V66.667Z" fill="#1D1D1D"/>
<path d="M129.315 66.667H120.536V133.334H129.315V66.667Z" fill="#1D1D1D"/>
<path d="M115.179 66.667H107.143V133.334H115.179V66.667Z" fill="#1D1D1D"/>
<path d="M101.042 66.667H93.75V133.334H101.042V66.667Z" fill="#1D1D1D"/>
<path d="M86.9047 66.667H80.3569V133.334H86.9047V66.667Z" fill="#1D1D1D"/>
<path d="M72.7679 66.667H66.9644V133.334H72.7679V66.667Z" fill="#1D1D1D"/>
<path d="M58.6309 66.667H53.5713V133.334H58.6309V66.667Z" fill="#1D1D1D"/>
<path d="M44.4941 66.667H40.1787V133.334H44.4941V66.667Z" fill="#1D1D1D"/>
<path d="M30.3571 66.667H26.7856V133.334H30.3571V66.667Z" fill="#1D1D1D"/>
<path d="M16.2204 66.667H13.3931V133.334H16.2204V66.667Z" fill="#1D1D1D"/>
<path d="M2.08333 66.667H0V133.334H2.08333V66.667Z" fill="#1D1D1D"/>
</g>
<defs>
<clipPath id="clip0_382_7750">
<rect width="200" height="200" fill="white"/>
</clipPath>
</defs>
</svg>
