<svg width="200" height="200" viewBox="0 0 200 200" fill="none" xmlns="http://www.w3.org/2000/svg">
<g clip-path="url(#clip0_382_7612)">
<rect width="200" height="200" fill="#1E1E1E"/>
<path d="M200 0H0V200H200V0Z" fill="#1D1D1D"/>
<path d="M12.5 133.333H0V200H12.5V133.333Z" fill="#F7F7F7"/>
<path d="M25.8928 133.333H14.1367V200H25.8928V133.333Z" fill="#F7F7F7"/>
<path d="M39.2853 133.333H28.2734V200H39.2853V133.333Z" fill="#F7F7F7"/>
<path d="M52.6788 133.333H42.4109V200H52.6788V133.333Z" fill="#F7F7F7"/>
<path d="M66.0714 133.333H56.5476V200H66.0714V133.333Z" fill="#F7F7F7"/>
<path d="M79.4646 133.333H70.6848V200H79.4646V133.333Z" fill="#F7F7F7"/>
<path d="M92.8572 133.333H84.8215V200H92.8572V133.333Z" fill="#F7F7F7"/>
<path d="M106.25 133.333H98.9585V200H106.25V133.333Z" fill="#F7F7F7"/>
<path d="M119.643 133.333H113.095V200H119.643V133.333Z" fill="#F7F7F7"/>
<path d="M133.035 133.333H127.232V200H133.035V133.333Z" fill="#F7F7F7"/>
<path d="M146.429 133.333H141.369V200H146.429V133.333Z" fill="#F7F7F7"/>
<path d="M159.821 133.333H155.506V200H159.821V133.333Z" fill="#F7F7F7"/>
<path d="M173.215 133.333H169.643V200H173.215V133.333Z" fill="#F7F7F7"/>
<path d="M186.607 133.333H183.78V200H186.607V133.333Z" fill="#F7F7F7"/>
<path d="M200 133.333H197.917V200H200V133.333Z" fill="#F7F7F7"/>
<path d="M12.5 0H0V66.6667H12.5V0Z" fill="#F7F7F7"/>
<path d="M25.8928 0H14.1367V66.6667H25.8928V0Z" fill="#F7F7F7"/>
<path d="M39.2853 0H28.2734V66.6667H39.2853V0Z" fill="#F7F7F7"/>
<path d="M52.6788 0H42.4109V66.6667H52.6788V0Z" fill="#F7F7F7"/>
<path d="M66.0714 0H56.5476V66.6667H66.0714V0Z" fill="#F7F7F7"/>
<path d="M79.4646 0H70.6848V66.6667H79.4646V0Z" fill="#F7F7F7"/>
<path d="M92.8572 0H84.8215V66.6667H92.8572V0Z" fill="#F7F7F7"/>
<path d="M106.25 0H98.9585V66.6667H106.25V0Z" fill="#F7F7F7"/>
<path d="M119.643 0H113.095V66.6667H119.643V0Z" fill="#F7F7F7"/>
<path d="M133.035 0H127.232V66.6667H133.035V0Z" fill="#F7F7F7"/>
<path d="M146.429 0H141.369V66.6667H146.429V0Z" fill="#F7F7F7"/>
<path d="M159.821 0H155.506V66.6667H159.821V0Z" fill="#F7F7F7"/>
<path d="M173.215 0H169.643V66.6667H173.215V0Z" fill="#F7F7F7"/>
<path d="M186.607 0H183.78V66.6667H186.607V0Z" fill="#F7F7F7"/>
<path d="M200 0H197.917V66.6667H200V0Z" fill="#F7F7F7"/>
<path d="M200 66.667H187.5V133.334H200V66.667Z" fill="#F7F7F7"/>
<path d="M185.863 66.667H174.107V133.334H185.863V66.667Z" fill="#F7F7F7"/>
<path d="M171.726 66.667H160.714V133.334H171.726V66.667Z" fill="#F7F7F7"/>
<path d="M157.59 66.667H147.322V133.334H157.59V66.667Z" fill="#F7F7F7"/>
<path d="M143.452 66.667H133.928V133.334H143.452V66.667Z" fill="#F7F7F7"/>
<path d="M129.315 66.667H120.536V133.334H129.315V66.667Z" fill="#F7F7F7"/>
<path d="M115.179 66.667H107.143V133.334H115.179V66.667Z" fill="#F7F7F7"/>
<path d="M101.042 66.667H93.75V133.334H101.042V66.667Z" fill="#F7F7F7"/>
<path d="M86.9046 66.667H80.3569V133.334H86.9046V66.667Z" fill="#F7F7F7"/>
<path d="M72.7679 66.667H66.9644V133.334H72.7679V66.667Z" fill="#F7F7F7"/>
<path d="M58.6311 66.667H53.5715V133.334H58.6311V66.667Z" fill="#F7F7F7"/>
<path d="M44.4939 66.667H40.1785V133.334H44.4939V66.667Z" fill="#F7F7F7"/>
<path d="M30.3571 66.667H26.7856V133.334H30.3571V66.667Z" fill="#F7F7F7"/>
<path d="M16.2199 66.667H13.3926V133.334H16.2199V66.667Z" fill="#F7F7F7"/>
<path d="M2.08333 66.667H0V133.334H2.08333V66.667Z" fill="#F7F7F7"/>
</g>
<defs>
<clipPath id="clip0_382_7612">
<rect width="200" height="200" fill="white"/>
</clipPath>
</defs>
</svg>
