<svg width="257" height="67" viewBox="0 0 257 67" fill="none" xmlns="http://www.w3.org/2000/svg">
<path d="M88.9272 56.7059V8.23584H96.7231L112.45 48.5033H112.586L128.178 8.23584H136.109V56.7059H130.279V16.8452H130.144C129.285 19.376 128.562 21.4098 127.974 22.9463L114.688 56.7059H110.01L96.7231 22.9463L94.5538 16.8452H94.4183V56.7059H88.9272Z" fill="#252423"/>
<path d="M144.385 56.7059V21.6583H149.876V56.7059H144.385ZM144.385 15.0149V8.23584H149.876V15.0149H144.385Z" fill="#252423"/>
<path d="M162.851 21.6583V26.2681H162.987C165.699 22.6526 169.405 20.8448 174.105 20.8448C177.811 20.8448 180.703 21.8165 182.782 23.7598C184.861 25.7031 185.9 28.4825 185.9 32.098V56.7059H180.409V32.5726C180.409 30.3129 179.709 28.5729 178.308 27.3527C176.907 26.0873 174.963 25.4546 172.478 25.4546C169.676 25.4546 167.371 26.3584 165.563 28.1662C163.755 29.9739 162.851 32.3014 162.851 35.1486V56.7059H157.36V21.6583H162.851Z" fill="#252423"/>
<path d="M216.224 56.7059L203.819 37.7924L198.666 42.6733V56.7059H193.175V8.23584H198.666V36.64L214.055 21.6583H221.037L207.615 34.2673L222.664 56.7059H216.224Z" fill="#252423"/>
<path d="M253.203 57.0448C249.723 57.0448 247.712 55.3049 247.17 51.825H247.102C244.21 55.5309 240.323 57.3838 235.442 57.3838C231.962 57.3838 229.115 56.5477 226.901 54.8756C224.686 53.2034 223.579 50.7855 223.579 47.622C223.579 45.995 223.827 44.594 224.325 43.419C224.867 42.1988 225.545 41.2271 226.358 40.504C227.172 39.7357 228.279 39.0804 229.68 38.5381C231.126 37.9506 232.505 37.5212 233.815 37.2501C235.126 36.9337 236.798 36.6174 238.832 36.301C240.142 36.1202 241.069 35.9847 241.611 35.8943C242.199 35.7587 242.944 35.5779 243.848 35.352C244.752 35.0808 245.385 34.787 245.746 34.4707C246.108 34.1543 246.447 33.725 246.763 33.1827C247.079 32.6403 247.238 32.0076 247.238 31.2845C247.238 29.296 246.537 27.782 245.136 26.7426C243.78 25.6579 241.86 25.1156 239.374 25.1156C233.725 25.1156 230.81 27.6917 230.629 32.8437H225.341C225.432 29.2734 226.652 26.4036 229.002 24.2343C231.397 22.0651 234.832 20.9804 239.306 20.9804C247.938 20.9804 252.254 24.6863 252.254 32.098V48.7744C252.254 50.311 252.503 51.3957 253 52.0284C253.542 52.6611 254.536 52.8192 255.983 52.5029H256.186V56.5025C255.282 56.8641 254.288 57.0448 253.203 57.0448ZM236.662 53.1808C240.052 53.1808 242.673 52.2091 244.526 50.2658C246.379 48.2773 247.305 46.108 247.305 43.7579V37.7924C245.633 38.8319 242.967 39.6905 239.306 40.3684C237.95 40.6396 236.888 40.8656 236.12 41.0463C235.352 41.1819 234.471 41.4531 233.476 41.8598C232.482 42.2214 231.736 42.6281 231.239 43.08C230.742 43.532 230.313 44.1421 229.951 44.9104C229.59 45.6335 229.409 46.4922 229.409 47.4864C229.409 51.2827 231.827 53.1808 236.662 53.1808Z" fill="#252423"/>
<path d="M62.8633 24.542L62.8633 24.9233L62.8633 42.1784L62.8633 42.403" stroke="#252423" stroke-width="2.3722" stroke-miterlimit="10" stroke-linecap="round"/>
<path d="M55.1538 16.6053L55.1538 50.1127" stroke="#252423" stroke-width="2.3722" stroke-miterlimit="10" stroke-linecap="round"/>
<path d="M55.1538 27.4166V10.6748" stroke="#252423" stroke-width="1.1861" stroke-miterlimit="10" stroke-linecap="round"/>
<path d="M62.8633 36.4727V19.7308" stroke="#252423" stroke-width="1.1861" stroke-miterlimit="10" stroke-linecap="round"/>
<path d="M1.21387 36.519V19.7772" stroke="#252423" stroke-width="1.1861" stroke-miterlimit="10" stroke-linecap="round"/>
<path d="M55.1538 47.7407L55.1538 55.1539" stroke="#252423" stroke-width="3.5583" stroke-miterlimit="10" stroke-linecap="round"/>
<path d="M47.4441 56.9328L47.4441 22.8324" stroke="#252423" stroke-width="2.3722" stroke-miterlimit="10" stroke-linecap="round"/>
<path d="M47.4441 4.74451L47.4441 26.3909" stroke="#252423" stroke-width="1.1861" stroke-miterlimit="10" stroke-linecap="round"/>
<path d="M39.7344 27.2803L39.7344 48.3336" stroke="#252423" stroke-width="2.3722" stroke-miterlimit="10" stroke-linecap="round"/>
<path d="M39.7344 1.77917L39.7344 31.4317" stroke="#252423" stroke-width="1.1861" stroke-miterlimit="10" stroke-linecap="round"/>
<path d="M32.0247 46.851L32.0247 64.939" stroke="#252423" stroke-width="3.5583" stroke-miterlimit="10" stroke-linecap="round"/>
<path d="M32.0247 53.0779L32.0247 31.135" stroke="#252423" stroke-width="2.3722" stroke-miterlimit="10" stroke-linecap="round"/>
<path d="M32.0247 0.593018L32.0247 32.9143" stroke="#252423" stroke-width="1.1861" stroke-miterlimit="10" stroke-linecap="round"/>
<path d="M24.3152 41.217L24.3152 64.0495" stroke="#252423" stroke-width="3.5583" stroke-miterlimit="10" stroke-linecap="round"/>
<path d="M39.7344 41.217L39.7344 64.0495" stroke="#252423" stroke-width="3.5583" stroke-miterlimit="10" stroke-linecap="round"/>
<path d="M24.3152 25.7977L24.3152 56.9329" stroke="#252423" stroke-width="2.3722" stroke-miterlimit="10" stroke-linecap="round"/>
<path d="M24.3152 1.77917V36.4726" stroke="#252423" stroke-width="1.1861" stroke-miterlimit="10" stroke-linecap="round"/>
<path d="M16.6055 61.0841L16.6055 43.8856" stroke="#252423" stroke-width="3.5583" stroke-miterlimit="10" stroke-linecap="round"/>
<path d="M16.6055 58.1191L16.6055 22.2395" stroke="#252423" stroke-width="2.3722" stroke-miterlimit="10" stroke-linecap="round"/>
<path d="M16.6055 4.74451V33.2109" stroke="#252423" stroke-width="1.1861" stroke-miterlimit="10" stroke-linecap="round"/>
<path d="M8.89575 10.6748V38.4093" stroke="#252423" stroke-width="1.1861" stroke-miterlimit="10" stroke-linecap="round"/>
<path d="M8.89575 18.9777L8.89575 55.1538" stroke="#252423" stroke-width="2.3722" stroke-miterlimit="10" stroke-linecap="round"/>
<path d="M8.89575 46.851L8.89575 55.1537" stroke="#252423" stroke-width="3.5583" stroke-miterlimit="10" stroke-linecap="round"/>
<path d="M1.18604 41.8101V41.7366V23.722" stroke="#252423" stroke-width="1.1861" stroke-miterlimit="10" stroke-linecap="round"/>
<path d="M1.18604 41.8101L1.18604 41.7451L1.18604 25.7977" stroke="#252423" stroke-width="2.3722" stroke-miterlimit="10" stroke-linecap="round"/>
<path d="M47.4407 61.0841L47.4407 43.8856" stroke="#252423" stroke-width="3.5583" stroke-miterlimit="10" stroke-linecap="round"/>
</svg>
