<svg width="383" height="383" viewBox="0 0 383 383" fill="none" xmlns="http://www.w3.org/2000/svg">
<mask id="mask0_379_51839" style="mask-type:luminance" maskUnits="userSpaceOnUse" x="0" y="0" width="383" height="383">
<path d="M382.677 0H0V382.677H382.677V0Z" fill="white"/>
</mask>
<g mask="url(#mask0_379_51839)">
<path d="M382.677 0H0V382.677H382.677V0Z" fill="#E1E1E1"/>
<mask id="mask1_379_51839" style="mask-type:luminance" maskUnits="userSpaceOnUse" x="0" y="0" width="766" height="766">
<path d="M765.354 0H0V765.354H765.354V0Z" fill="white"/>
</mask>
<g mask="url(#mask1_379_51839)">
<path d="M366.731 0H350.787V255.118H366.731V0Z" fill="#1E1E1E"/>
</g>
<mask id="mask2_379_51839" style="mask-type:luminance" maskUnits="userSpaceOnUse" x="0" y="0" width="766" height="766">
<path d="M765.354 0H0V765.354H765.354V0Z" fill="white"/>
</mask>
<g mask="url(#mask2_379_51839)">
<path d="M334.843 0H318.898V255.118H334.843V0Z" fill="#1E1E1E"/>
</g>
<mask id="mask3_379_51839" style="mask-type:luminance" maskUnits="userSpaceOnUse" x="0" y="0" width="766" height="766">
<path d="M765.354 0H0V765.354H765.354V0Z" fill="white"/>
</mask>
<g mask="url(#mask3_379_51839)">
<path d="M302.952 0H287.007V255.118H302.952V0Z" fill="#1E1E1E"/>
</g>
<mask id="mask4_379_51839" style="mask-type:luminance" maskUnits="userSpaceOnUse" x="0" y="0" width="766" height="766">
<path d="M765.354 0H0V765.354H765.354V0Z" fill="white"/>
</mask>
<g mask="url(#mask4_379_51839)">
<path d="M271.063 0H255.118V255.118H271.063V0Z" fill="#1E1E1E"/>
</g>
<mask id="mask5_379_51839" style="mask-type:luminance" maskUnits="userSpaceOnUse" x="0" y="0" width="766" height="766">
<path d="M765.354 0H0V765.354H765.354V0Z" fill="white"/>
</mask>
<g mask="url(#mask5_379_51839)">
<path d="M239.173 0H223.228V255.118H239.173V0Z" fill="#1E1E1E"/>
</g>
<mask id="mask6_379_51839" style="mask-type:luminance" maskUnits="userSpaceOnUse" x="0" y="0" width="766" height="766">
<path d="M765.354 0H0V765.354H765.354V0Z" fill="white"/>
</mask>
<g mask="url(#mask6_379_51839)">
<path d="M207.284 0H191.339V255.118H207.284V0Z" fill="#1E1E1E"/>
</g>
<mask id="mask7_379_51839" style="mask-type:luminance" maskUnits="userSpaceOnUse" x="0" y="0" width="766" height="766">
<path d="M765.354 0H0V765.354H765.354V0Z" fill="white"/>
</mask>
<g mask="url(#mask7_379_51839)">
<path d="M175.394 0H159.449V255.118H175.394V0Z" fill="#1E1E1E"/>
</g>
<mask id="mask8_379_51839" style="mask-type:luminance" maskUnits="userSpaceOnUse" x="0" y="0" width="766" height="766">
<path d="M765.354 0H0V765.354H765.354V0Z" fill="white"/>
</mask>
<g mask="url(#mask8_379_51839)">
<path d="M143.503 0H127.559V255.118H143.503V0Z" fill="#1E1E1E"/>
</g>
<mask id="mask9_379_51839" style="mask-type:luminance" maskUnits="userSpaceOnUse" x="0" y="0" width="766" height="766">
<path d="M765.354 0H0V765.354H765.354V0Z" fill="white"/>
</mask>
<g mask="url(#mask9_379_51839)">
<path d="M111.614 0H95.6694V255.118H111.614V0Z" fill="#1E1E1E"/>
</g>
<mask id="mask10_379_51839" style="mask-type:luminance" maskUnits="userSpaceOnUse" x="0" y="0" width="766" height="766">
<path d="M765.354 0H0V765.354H765.354V0Z" fill="white"/>
</mask>
<g mask="url(#mask10_379_51839)">
<path d="M79.7242 0H63.7793V255.118H79.7242V0Z" fill="#1E1E1E"/>
</g>
<mask id="mask11_379_51839" style="mask-type:luminance" maskUnits="userSpaceOnUse" x="0" y="0" width="766" height="766">
<path d="M765.354 0H0V765.354H765.354V0Z" fill="white"/>
</mask>
<g mask="url(#mask11_379_51839)">
<path d="M47.8355 0H31.8906V255.118H47.8355V0Z" fill="#1E1E1E"/>
</g>
<mask id="mask12_379_51839" style="mask-type:luminance" maskUnits="userSpaceOnUse" x="0" y="0" width="766" height="766">
<path d="M765.354 0H0V765.354H765.354V0Z" fill="white"/>
</mask>
<g mask="url(#mask12_379_51839)">
<path d="M15.9449 0H0.114258V255.118H15.9449V0Z" fill="#1E1E1E"/>
</g>
<mask id="mask13_379_51839" style="mask-type:luminance" maskUnits="userSpaceOnUse" x="0" y="0" width="766" height="766">
<path d="M765.354 0H0V765.354H765.354V0Z" fill="white"/>
</mask>
<g mask="url(#mask13_379_51839)">
<path d="M63.7804 255.117H31.8906V510.235H63.7804V255.117Z" fill="#1E1E1E"/>
</g>
<mask id="mask14_379_51839" style="mask-type:luminance" maskUnits="userSpaceOnUse" x="0" y="0" width="766" height="766">
<path d="M765.354 0H0V765.354H765.354V0Z" fill="white"/>
</mask>
<g mask="url(#mask14_379_51839)">
<path d="M127.559 255.117H95.6694V510.235H127.559V255.117Z" fill="#1E1E1E"/>
</g>
<mask id="mask15_379_51839" style="mask-type:luminance" maskUnits="userSpaceOnUse" x="0" y="0" width="766" height="766">
<path d="M765.354 0H0V765.354H765.354V0Z" fill="white"/>
</mask>
<g mask="url(#mask15_379_51839)">
<path d="M191.338 255.117H159.449V510.235H191.338V255.117Z" fill="#1E1E1E"/>
</g>
<mask id="mask16_379_51839" style="mask-type:luminance" maskUnits="userSpaceOnUse" x="0" y="0" width="766" height="766">
<path d="M765.354 0H0V765.354H765.354V0Z" fill="white"/>
</mask>
<g mask="url(#mask16_379_51839)">
<path d="M255.118 255.117H223.228V510.235H255.118V255.117Z" fill="#1E1E1E"/>
</g>
<mask id="mask17_379_51839" style="mask-type:luminance" maskUnits="userSpaceOnUse" x="0" y="0" width="766" height="766">
<path d="M765.354 0H0V765.354H765.354V0Z" fill="white"/>
</mask>
<g mask="url(#mask17_379_51839)">
<path d="M318.897 255.117H287.007V510.235H318.897V255.117Z" fill="#1E1E1E"/>
</g>
<mask id="mask18_379_51839" style="mask-type:luminance" maskUnits="userSpaceOnUse" x="0" y="0" width="766" height="766">
<path d="M765.354 0H0V765.354H765.354V0Z" fill="white"/>
</mask>
<g mask="url(#mask18_379_51839)">
<path d="M382.676 255.117H350.787V510.235H382.676V255.117Z" fill="#1E1E1E"/>
</g>
</g>
</svg>
