<svg width="200" height="200" viewBox="0 0 200 200" fill="none" xmlns="http://www.w3.org/2000/svg">
<g clip-path="url(#clip0_382_7552)">
<rect width="200" height="200" fill="#1E1E1E"/>
<path d="M15.625 0H0V200H15.625V0Z" fill="#E2E2E2"/>
<path d="M31.2497 0H17.708V200H31.2497V0Z" fill="#E2E2E2"/>
<path d="M46.875 0H34.375V200H46.875V0Z" fill="#E2E2E2"/>
<path d="M62.5003 0H51.042V200H62.5003V0Z" fill="#E2E2E2"/>
<path d="M78.1247 0H67.708V200H78.1247V0Z" fill="#E2E2E2"/>
<path d="M92.7083 0H84.2441V200H92.7083V0Z" fill="#E2E2E2"/>
<path d="M108.334 0H101.042V200H108.334V0Z" fill="#E2E2E2"/>
<path d="M123.958 0H117.708V200H123.958V0Z" fill="#E2E2E2"/>
<path d="M139.583 0H134.375V200H139.583V0Z" fill="#E2E2E2"/>
<path d="M155.224 0H151.042V200H155.224V0Z" fill="#E2E2E2"/>
<path d="M170.833 0H167.708V200H170.833V0Z" fill="#E2E2E2"/>
<path d="M185.417 0H183.333V200H185.417V0Z" fill="#E2E2E2"/>
</g>
<defs>
<clipPath id="clip0_382_7552">
<rect width="200" height="200" fill="white"/>
</clipPath>
</defs>
</svg>
