<svg width="200" height="200" viewBox="0 0 200 200" fill="none" xmlns="http://www.w3.org/2000/svg">
<g clip-path="url(#clip0_382_7443)">
<rect width="200" height="200" fill="#1E1E1E"/>
<path d="M200 141.667H133.333V145.833H200V141.667Z" fill="#E2E2E2"/>
<path d="M200 133.333H133.333V137.5H200V133.333Z" fill="#E2E2E2"/>
<path d="M200 125H133.333V129.166H200V125Z" fill="#E2E2E2"/>
<path d="M200 116.666H133.333V120.833H200V116.666Z" fill="#E2E2E2"/>
<path d="M200 108.333H133.333V112.5H200V108.333Z" fill="#E2E2E2"/>
<path d="M200 100H133.333V104.167H200V100Z" fill="#E2E2E2"/>
<path d="M200 91.6665H133.333V95.8332H200V91.6665Z" fill="#E2E2E2"/>
<path d="M200 83.333H133.333V87.4997H200V83.333Z" fill="#E2E2E2"/>
<path d="M200 75H133.333V79.1667H200V75Z" fill="#E2E2E2"/>
<path d="M200 66.6665H133.333V70.8332H200V66.6665Z" fill="#E2E2E2"/>
<path d="M200 58.3335H133.333V62.5002H200V58.3335Z" fill="#E2E2E2"/>
<path d="M200 50H133.333V54.1667H200V50Z" fill="#E2E2E2"/>
<path d="M200 41.666H133.333V45.8327H200V41.666Z" fill="#E2E2E2"/>
<path d="M200 33.333H133.333V37.4997H200V33.333Z" fill="#E2E2E2"/>
<path d="M200 24.9995H133.333V29.1662H200V24.9995Z" fill="#E2E2E2"/>
<path d="M200 16.6665H133.333V20.8332H200V16.6665Z" fill="#E2E2E2"/>
<path d="M200 8.33301H133.333V12.4997H200V8.33301Z" fill="#E2E2E2"/>
<path d="M200 0.0292969H133.333V4.16612H200V0.0292969Z" fill="#E2E2E2"/>
<path d="M133.333 8.33301H66.6665V16.6663H133.333V8.33301Z" fill="#E2E2E2"/>
<path d="M133.333 24.9995H66.6665V33.3328H133.333V24.9995Z" fill="#E2E2E2"/>
<path d="M133.333 41.666H66.6665V49.9993H133.333V41.666Z" fill="#E2E2E2"/>
<path d="M133.333 58.3335H66.6665V66.6668H133.333V58.3335Z" fill="#E2E2E2"/>
<path d="M133.333 75H66.6665V83.3333H133.333V75Z" fill="#E2E2E2"/>
<path d="M133.333 91.6665H66.6665V99.9998H133.333V91.6665Z" fill="#E2E2E2"/>
<path d="M133.333 108.333H66.6665V116.666H133.333V108.333Z" fill="#E2E2E2"/>
<path d="M133.333 125H66.6665V133.333H133.333V125Z" fill="#E2E2E2"/>
<path d="M133.333 141.667H66.6665V150H133.333V141.667Z" fill="#E2E2E2"/>
<path d="M133.333 158.333H66.6665V166.666H133.333V158.333Z" fill="#E2E2E2"/>
<path d="M133.333 175H66.6665V183.333H133.333V175Z" fill="#E2E2E2"/>
<path d="M133.333 191.666H66.6665V199.999H133.333V191.666Z" fill="#E2E2E2"/>
<path d="M66.6666 166.667H0V183.333H66.6666V166.667Z" fill="#E2E2E2"/>
<path d="M66.6666 0H0V16.6667H66.6666V0Z" fill="#E2E2E2"/>
<path d="M66.6666 33.333H0V49.9997H66.6666V33.333Z" fill="#E2E2E2"/>
<path d="M66.6666 66.6665H0V83.3332H66.6666V66.6665Z" fill="#E2E2E2"/>
<path d="M66.6666 100H0V116.667H66.6666V100Z" fill="#E2E2E2"/>
<path d="M66.6666 133.333H0V150H66.6666V133.333Z" fill="#E2E2E2"/>
<path d="M200 191.666H133.333V195.833H200V191.666Z" fill="#E2E2E2"/>
<path d="M200 183.333H133.333V187.5H200V183.333Z" fill="#E2E2E2"/>
<path d="M200 175H133.333V179.167H200V175Z" fill="#E2E2E2"/>
<path d="M200 166.667H133.333V170.833H200V166.667Z" fill="#E2E2E2"/>
<path d="M200 158.333H133.333V162.5H200V158.333Z" fill="#E2E2E2"/>
<path d="M200 150H133.333V154.166H200V150Z" fill="#E2E2E2"/>
</g>
<defs>
<clipPath id="clip0_382_7443">
<rect width="200" height="200" fill="white"/>
</clipPath>
</defs>
</svg>
