<svg width="200" height="200" viewBox="0 0 200 200" fill="none" xmlns="http://www.w3.org/2000/svg">
<g clip-path="url(#clip0_382_7397)">
<rect width="200" height="200" fill="#1E1E1E"/>
<path d="M66.6667 100H62.5V200H66.6667V100Z" fill="#E2E2E2"/>
<path d="M62.4999 0H58.3333V100H62.4999V0Z" fill="#E2E2E2"/>
<path d="M70.8334 0H66.6667V100H70.8334V0Z" fill="#E2E2E2"/>
<path d="M75.0002 100H70.8335V200H75.0002V100Z" fill="#E2E2E2"/>
<path d="M83.3332 100H79.1665V200H83.3332V100Z" fill="#E2E2E2"/>
<path d="M79.1667 0H75V100H79.1667V0Z" fill="#E2E2E2"/>
<path d="M91.6667 100H87.5V200H91.6667V100Z" fill="#E2E2E2"/>
<path d="M87.4999 0H83.3333V100H87.4999V0Z" fill="#E2E2E2"/>
<path d="M95.8334 0H91.6667V100H95.8334V0Z" fill="#E2E2E2"/>
<path d="M100 100H95.8335V200H100V100Z" fill="#E2E2E2"/>
<path d="M108.333 100H104.167V200H108.333V100Z" fill="#E2E2E2"/>
<path d="M104.167 0H100V100H104.167V0Z" fill="#E2E2E2"/>
<path d="M112.5 0H108.333V100H112.5V0Z" fill="#E2E2E2"/>
<path d="M116.667 100H112.5V200H116.667V100Z" fill="#E2E2E2"/>
<path d="M125 100H120.833V200H125V100Z" fill="#E2E2E2"/>
<path d="M120.833 0H116.667V100H120.833V0Z" fill="#E2E2E2"/>
<path d="M129.167 0H125V100H129.167V0Z" fill="#E2E2E2"/>
<path d="M133.333 100H129.167V200H133.333V100Z" fill="#E2E2E2"/>
<path d="M137.5 0H133.333V100H137.5V0Z" fill="#E2E2E2"/>
<path d="M141.667 100H137.5V200H141.667V100Z" fill="#E2E2E2"/>
<path d="M145.833 0H141.667V100H145.833V0Z" fill="#E2E2E2"/>
<path d="M150 100H145.833V200H150V100Z" fill="#E2E2E2"/>
<path d="M154.167 0H150V100H154.167V0Z" fill="#E2E2E2"/>
<path d="M158.333 100H154.167V200H158.333V100Z" fill="#E2E2E2"/>
<path d="M162.5 0H158.333V100H162.5V0Z" fill="#E2E2E2"/>
<path d="M166.667 100H162.5V200H166.667V100Z" fill="#E2E2E2"/>
<path d="M170.833 0H166.667V100H170.833V0Z" fill="#E2E2E2"/>
<path d="M175 100H170.833V200H175V100Z" fill="#E2E2E2"/>
<path d="M179.167 0H175V100H179.167V0Z" fill="#E2E2E2"/>
<path d="M183.333 100H179.167V200H183.333V100Z" fill="#E2E2E2"/>
<path d="M187.5 0H183.333V100H187.5V0Z" fill="#E2E2E2"/>
<path d="M191.667 100H187.5V200H191.667V100Z" fill="#E2E2E2"/>
<path d="M200 100H195.833V200H200V100Z" fill="#E2E2E2"/>
<path d="M195.833 0H191.667V100H195.833V0Z" fill="#E2E2E2"/>
<path d="M4.16667 0H0V100H4.16667V0Z" fill="#E2E2E2"/>
<path d="M8.33341 100H4.16675V200H8.33341V100Z" fill="#E2E2E2"/>
<path d="M12.5002 0H8.3335V100H12.5002V0Z" fill="#E2E2E2"/>
<path d="M16.6667 100H12.5V200H16.6667V100Z" fill="#E2E2E2"/>
<path d="M24.9999 100H20.8333V200H24.9999V100Z" fill="#E2E2E2"/>
<path d="M20.8332 0H16.6665V100H20.8332V0Z" fill="#E2E2E2"/>
<path d="M29.1667 0H25V100H29.1667V0Z" fill="#E2E2E2"/>
<path d="M33.3334 100H29.1667V200H33.3334V100Z" fill="#E2E2E2"/>
<path d="M41.6667 100H37.5V200H41.6667V100Z" fill="#E2E2E2"/>
<path d="M37.4999 0H33.3333V100H37.4999V0Z" fill="#E2E2E2"/>
<path d="M49.9999 100H45.8333V200H49.9999V100Z" fill="#E2E2E2"/>
<path d="M45.8334 0H41.6667V100H45.8334V0Z" fill="#E2E2E2"/>
<path d="M54.1667 0H50V100H54.1667V0Z" fill="#E2E2E2"/>
<path d="M58.3334 100H54.1667V200H58.3334V100Z" fill="#E2E2E2"/>
</g>
<defs>
<clipPath id="clip0_382_7397">
<rect width="200" height="200" fill="white"/>
</clipPath>
</defs>
</svg>
