<svg width="200" height="200" viewBox="0 0 200 200" fill="none" xmlns="http://www.w3.org/2000/svg">
<g clip-path="url(#clip0_382_7597)">
<rect width="200" height="200" fill="#1E1E1E"/>
<path d="M200 100H191.667V200H200V100Z" fill="#E2E2E2"/>
<path d="M16.6668 100H8.3335V200H16.6668V100Z" fill="#E2E2E2"/>
<path d="M33.3333 100H25V200H33.3333V100Z" fill="#E2E2E2"/>
<path d="M49.9998 100H41.6665V200H49.9998V100Z" fill="#E2E2E2"/>
<path d="M66.6668 100H58.3335V200H66.6668V100Z" fill="#E2E2E2"/>
<path d="M83.3333 100H75V200H83.3333V100Z" fill="#E2E2E2"/>
<path d="M100 100H91.667V200H100V100Z" fill="#E2E2E2"/>
<path d="M116.667 100H108.333V200H116.667V100Z" fill="#E2E2E2"/>
<path d="M133.333 100H125V200H133.333V100Z" fill="#E2E2E2"/>
<path d="M150 100H141.667V200H150V100Z" fill="#E2E2E2"/>
<path d="M166.666 100H158.333V200H166.666V100Z" fill="#E2E2E2"/>
<path d="M183.333 100H175V200H183.333V100Z" fill="#E2E2E2"/>
<path d="M8.33333 0H0V100H8.33333V0Z" fill="#E2E2E2"/>
<path d="M191.667 0H183.333V100H191.667V0Z" fill="#E2E2E2"/>
<path d="M175 0H166.667V100H175V0Z" fill="#E2E2E2"/>
<path d="M158.333 0H150V100H158.333V0Z" fill="#E2E2E2"/>
<path d="M141.667 0H133.333V100H141.667V0Z" fill="#E2E2E2"/>
<path d="M125 0H116.667V100H125V0Z" fill="#E2E2E2"/>
<path d="M108.333 0H100V100H108.333V0Z" fill="#E2E2E2"/>
<path d="M91.6668 0H83.3335V100H91.6668V0Z" fill="#E2E2E2"/>
<path d="M74.9998 0H66.6665V100H74.9998V0Z" fill="#E2E2E2"/>
<path d="M58.3333 0H50V100H58.3333V0Z" fill="#E2E2E2"/>
<path d="M41.6668 0H33.3335V100H41.6668V0Z" fill="#E2E2E2"/>
<path d="M25.0003 0H16.667V100H25.0003V0Z" fill="#E2E2E2"/>
</g>
<defs>
<clipPath id="clip0_382_7597">
<rect width="200" height="200" fill="white"/>
</clipPath>
</defs>
</svg>
